PathFileType	4	(X/Y/Z)	C:\Users\Basilio\Documents\Thesis Gigler\squatting_fais\c3dfiles\077\SJ_pre4\markers_experimental.trc
DataRate	CameraRate	NumFrames	NumMarkers	Units	OrigDataRate	OrigDataStartFrame	OrigNumFrames
200.000000	200.000000	4	60	mm	200.000000	853	1365
Frame#	Time	FHD			LBHD			RBHD			C7			T10			CLAV			LSHO			LUUPA			LMUPA			LDUPA			LLEP			LMEP			LRAD			LUL			LRFIN			RSHO			RUPA1			RMUPA			RDUPA			RLEP			RMEP			RRAD			RUL			RUFIN			LASI			RASI			USACR			LSACR			RSACR			LTHI1			LTHI2			LTHI3			LTHI4			LLFC			LMFC			LTIB1			LTIB2			LTIB3			LTIB4			LLMAL			LHEE			LMT1			LMT2			LMT5			RTHI			RTHI2			RTHI3			RTHI4			RLFC			RMFC			RTIB1			RTIB2			RTIB3			RTIB4			RLMAL			RMMAL			RHEE			RMT1			RMT2			RMT5			
		X1	Y1	Z1	X2	Y2	Z2	X3	Y3	Z3	X4	Y4	Z4	X5	Y5	Z5	X6	Y6	Z6	X7	Y7	Z7	X8	Y8	Z8	X9	Y9	Z9	X10	Y10	Z10	X11	Y11	Z11	X12	Y12	Z12	X13	Y13	Z13	X14	Y14	Z14	X15	Y15	Z15	X16	Y16	Z16	X17	Y17	Z17	X18	Y18	Z18	X19	Y19	Z19	X20	Y20	Z20	X21	Y21	Z21	X22	Y22	Z22	X23	Y23	Z23	X24	Y24	Z24	X25	Y25	Z25	X26	Y26	Z26	X27	Y27	Z27	X28	Y28	Z28	X29	Y29	Z29	X30	Y30	Z30	X31	Y31	Z31	X32	Y32	Z32	X33	Y33	Z33	X34	Y34	Z34	X35	Y35	Z35	X36	Y36	Z36	X37	Y37	Z37	X38	Y38	Z38	X39	Y39	Z39	X40	Y40	Z40	X41	Y41	Z41	X42	Y42	Z42	X43	Y43	Z43	X44	Y44	Z44	X45	Y45	Z45	X46	Y46	Z46	X47	Y47	Z47	X48	Y48	Z48	X49	Y49	Z49	X50	Y50	Z50	X51	Y51	Z51	X52	Y52	Z52	X53	Y53	Z53	X54	Y54	Z54	X55	Y55	Z55	X56	Y56	Z56	X57	Y57	Z57	X58	Y58	Z58	X59	Y59	Z59	X60	Y60	Z60	

854	4.265	-108.9091949462891	1898.4892578125	-908.5412597656252	-252.0983276367188	1798.621459960938	-981.9545898437502	-266.0747985839844	1798.850952148438	-837.122009277344	-319.3943786621094	1700.813842773438	-915.068298339844	-417.6814270019532	1378.659301757813	-908.8094482421877	-162.6349334716797	1621.806640625	-904.2445068359377	-191.636215209961	1670.629028320313	-1086.025756835938	-226.0621643066407	1546.750366210938	-1263.2978515625	-203.3967742919922	1502.136962890625	-1260.87451171875	-239.1345214843751	1497.850219726563	-1309.981079101563	-247.7526245117188	1436.067749023438	-1343.927734375	-333.5674743652344	1440.157836914063	-1326.585327148438	-321.3375854492188	1227.454833984375	-1127.947509765625	-291.0085754394532	1168.808227539063	-1175.65087890625	-287.3535461425782	1193.871826171875	-1067.84130859375	-169.9333801269532	1670.974731445313	-728.9736328125001	-253.4981079101563	1553.643920898438	-548.4781494140626	-239.869857788086	1505.85302734375	-551.8506469726564	-281.3032226562501	1502.155151367188	-508.9662475585939	-303.9303894042969	1440.475952148438	-481.9955444335939	-387.7014770507814	1452.631469726563	-510.1991271972657	-367.3029479980469	1215.299560546875	-670.3780517578126	-318.6189880371094	1171.241333007813	-624.7044067382814	-313.5670776367188	1200.287719726563	-721.6244506835939	-258.3053283691407	1174.511596679688	-1031.331176757813	-273.1493225097657	1173.790405273438	-768.5573730468752	-446.0647583007814	1268.152587890625	-907.2092895507815	-460.3060913085939	1241.745483398438	-936.4699707031252	-462.5945739746095	1237.072265625	-881.8955078125002	-340.1762084960938	948.5855102539065	-1137.691284179688	-299.9305114746094	877.0861816406252	-1157.836791992188	-251.676498413086	884.9645996093752	-1151.887817382813	-320.3597717285157	819.101501464844	-1153.856689453125	-275.8826904296876	676.8833618164064	-1165.358520507813	-244.0019073486329	632.3339233398439	-1044.011840820313	-246.241683959961	444.0814208984376	-1149.411254882813	-294.0619812011719	415.8827209472657	-1219.488525390625	-256.0702819824219	405.8480834960939	-1194.160278320313	-263.0313720703126	321.5105590820313	-1178.531494140625	-345.0064697265626	217.8864898681641	-1222.4736328125	-395.0887451171876	193.1823730468751	-1163.695678710938	-210.3327636718751	89.25947570800783	-1190.913452148438	-214.0450286865235	92.13136291503908	-1232.893188476563	-293.2153625488282	209.198471069336	-1151.650756835938	-342.2956848144532	830.786315917969	-662.7202758789064	-295.5522460937501	782.4935302734377	-649.3254394531251	-262.3822021484376	787.6696777343752	-653.5803833007814	-312.1817932128907	701.3998413085939	-655.8587036132814	-305.3308410644532	635.1469726562501	-649.7744750976564	-252.8300476074219	610.9979248046876	-769.2961425781252	-256.0399475097657	498.5697326660157	-643.1281127929689	-326.2636718750001	423.9615783691407	-614.5582275390626	-280.6376037597657	416.1278381347657	-624.8203735351564	-269.8758239746094	368.3535156250001	-658.6307373046876	-354.7367248535157	196.385482788086	-619.7583007812501	-303.2432861328126	190.9642486572266	-696.7075805664064	-403.8771362304689	172.4434967041016	-693.2319335937501	-211.0215454101563	82.54185485839845	-619.3032836914064	-222.4674224853516	87.3013381958008	-583.1576538085939	-260.4915161132813	73.45608520507814	-546.3302001953126	
855	4.27	-110.1344375610352	1888.771728515625	-908.074157714844	-252.8708190917969	1788.44482421875	-981.666687011719	-267.0792846679688	1787.925170898438	-836.651062011719	-320.2436218261719	1690.884521484375	-914.7742919921877	-418.5288391113282	1368.193725585938	-909.161560058594	-163.5867309570313	1611.442260742188	-903.976989746094	-192.0666503906251	1660.569580078125	-1085.680908203125	-225.9258575439454	1536.780639648438	-1263.035034179688	-204.5271453857422	1491.918701171875	-1259.923217773438	-239.1578063964844	1487.723022460938	-1309.659301757813	-247.7177734375001	1426.158935546875	-1343.842163085938	-333.9236755371094	1430.672973632813	-1326.799682617188	-322.0689392089844	1217.477905273438	-1128.326904296875	-291.0859069824219	1158.765014648438	-1175.933715820313	-288.1195373535157	1183.811889648438	-1068.316772460938	-170.9684600830078	1660.323120117188	-728.6163940429689	-254.7805328369141	1542.868041992188	-548.2877807617189	-241.1542358398438	1495.095703125	-551.4755249023439	-282.6865234375001	1491.4169921875	-508.8380737304689	-305.3096008300782	1429.4677734375	-481.9171752929689	-388.9870910644532	1441.909423828125	-510.1177673339845	-368.5256042480469	1204.983032226563	-670.8707885742189	-319.9649963378907	1160.7373046875	-625.1455688476564	-314.6220397949219	1189.890380859375	-721.9434814453126	-258.8642578125001	1164.689208984375	-1031.774780273438	-273.8410339355469	1163.700439453125	-768.7676391601565	-447.4488525390626	1257.299438476563	-907.4262695312502	-458.8465270996095	1230.613403320313	-937.386413574219	-462.6790161132814	1226.943237304688	-882.5509033203127	-339.8604431152344	938.5270996093752	-1138.988159179688	-298.6952209472657	867.171081542969	-1158.798095703125	-251.8723602294922	875.8193359375002	-1153.738159179688	-319.8294677734376	809.462097167969	-1155.492797851563	-274.9643859863282	667.2982788085939	-1167.358520507813	-242.5374145507813	622.6301269531251	-1045.932495117188	-246.8613586425782	434.1871032714845	-1150.220947265625	-295.2639160156251	405.9495849609376	-1220.200439453125	-257.1712036132813	395.8231811523439	-1194.931274414063	-265.3829040527344	311.2666931152344	-1178.721069335938	-348.2089843750001	208.7338562011719	-1222.166870117188	-399.2280883789064	185.9017791748047	-1163.526123046875	-216.4462585449219	77.90769958496095	-1188.868041992188	-220.1251068115235	80.41412353515626	-1230.887329101563	-297.4355773925782	199.7542266845704	-1151.199951171875	-341.0033264160157	821.551940917969	-661.8109741210939	-293.9989624023438	773.5150146484377	-648.0162963867189	-260.9092102050782	778.654968261719	-651.9431762695314	-310.0212402343751	692.4584960937501	-654.3270263671876	-303.2467651367188	626.1180419921876	-647.9551391601564	-249.6715850830079	601.4127197265626	-766.9005737304689	-255.1085815429688	489.1207580566407	-641.4447631835939	-326.1519775390626	415.089813232422	-613.1676025390626	-280.6268615722657	406.8829040527345	-623.5629272460939	-270.4285278320313	359.0680847167969	-657.6002197265626	-357.2686157226563	188.0641021728516	-619.1633911132814	-305.7550964355469	182.094970703125	-696.2483520507814	-406.8477172851564	165.5626678466797	-692.8962402343751	-215.7463836669922	71.25950622558595	-619.8706665039064	-226.9377441406251	76.3196487426758	-583.4527587890626	-265.1289672851563	62.81002426147462	-546.7698364257814	
856	4.275	-111.0476989746094	1878.352783203125	-907.474792480469	-253.7018585205079	1777.141235351563	-981.011657714844	-267.8493041992188	1777.93603515625	-836.2902832031252	-321.2293701171876	1680.731811523438	-914.4600219726565	-419.2293090820314	1357.874755859375	-909.6719970703127	-164.7741394042969	1601.250244140625	-903.7629394531252	-192.830307006836	1650.36328125	-1085.335815429688	-226.0724792480469	1526.52392578125	-1262.791015625	-203.7846679687501	1481.6455078125	-1260.044677734375	-239.278060913086	1477.7001953125	-1309.572631835938	-248.1063385009766	1416.343627929688	-1343.821166992188	-334.1370849609376	1420.766479492188	-1327.05078125	-322.6899414062501	1207.427490234375	-1128.573974609375	-292.2341918945313	1148.848999023438	-1176.57275390625	-288.8298034667969	1173.471801757813	-1068.744506835938	-172.0502166748047	1649.260864257813	-728.2847290039064	-256.1190490722657	1532.162719726563	-548.1324462890626	-242.383773803711	1484.292236328125	-551.2680053710939	-284.0460205078126	1480.465576171875	-508.613739013672	-306.6401367187501	1418.4375	-481.8431396484376	-390.3395080566407	1430.935302734375	-510.1707153320314	-369.6153259277344	1194.366821289063	-671.3482666015626	-321.2404785156251	1150.08203125	-625.5017700195314	-315.5941162109376	1179.3955078125	-722.1275024414064	-259.7256774902344	1154.548950195313	-1032.3359375	-274.5444946289063	1153.271240234375	-768.8601074218752	-447.6426086425782	1246.8291015625	-908.282409667969	-461.8390502929689	1220.402099609375	-937.6774902343752	-464.4509277343751	1215.53955078125	-883.0971679687502	-339.7793579101563	928.2994384765627	-1140.139038085938	-298.8865966796876	857.371032714844	-1160.6220703125	-250.6101531982422	866.0608520507815	-1155.030395507813	-318.9335937500001	799.3967285156252	-1156.886352539063	-273.3778381347657	657.7318725585939	-1169.1015625	-241.1241912841797	612.7182617187501	-1047.734619140625	-247.4971160888672	424.0957336425782	-1151.04736328125	-296.5327148437501	396.1940917968751	-1220.648315429688	-258.4862976074219	385.5045166015626	-1195.429565429688	-267.2022094726563	301.4490966796876	-1178.491577148438	-351.6694335937501	199.734848022461	-1221.843994140625	-403.1844787597657	178.2061004638672	-1163.226684570313	-223.2809295654297	67.02860260009767	-1186.8154296875	-227.0601348876954	68.73511505126955	-1229.2646484375	-301.2045288085938	190.1930236816407	-1150.656494140625	-339.7145996093751	811.9146728515627	-661.0934448242189	-292.5835571289063	764.2350463867189	-646.7151489257814	-259.4508056640626	769.8345336914065	-650.3009033203126	-308.1032104492188	682.9112548828126	-652.9365844726564	-301.1612854003907	616.7760009765626	-646.1627197265626	-248.032211303711	591.8547363281251	-764.9739990234376	-254.1428222656251	479.3585510253907	-640.0880737304689	-326.2004699707032	406.019256591797	-611.7973632812501	-280.6198730468751	397.3110351562501	-622.4122924804689	-271.1955566406251	349.5325927734376	-656.6776123046876	-360.1166381835938	179.5959014892578	-618.5101318359376	-308.9187622070313	173.1093444824219	-695.6996459960939	-410.0993041992189	158.008544921875	-691.9710693359376	-222.3654022216797	58.32973861694337	-621.7013549804689	-232.3888092041016	63.90803527832033	-584.4000854492189	-270.8141174316407	51.60297012329103	-547.6413574218751	
857	4.28	-111.8489685058594	1867.657348632813	-906.8042602539065	-254.6760864257813	1766.826538085938	-980.594909667969	-268.9146728515626	1766.525756835938	-835.7939453125002	-322.2501831054688	1669.966064453125	-914.0652465820315	-420.2242431640626	1346.917724609375	-910.0238037109377	-165.8435974121094	1590.342041015625	-903.4989013671877	-193.3166046142579	1639.804809570313	-1084.81494140625	-227.0138854980469	1516.589965820313	-1263.011840820313	-204.6859741210938	1471.267822265625	-1259.6552734375	-239.3033142089844	1467.355346679688	-1309.302368164063	-248.2837524414063	1406.126831054688	-1343.90625	-334.6835327148438	1410.877685546875	-1327.367553710938	-323.3860473632813	1197.093017578125	-1128.973999023438	-293.0906372070313	1138.744140625	-1177.01806640625	-289.3695373535157	1162.952880859375	-1069.114624023438	-173.0343017578125	1638.0537109375	-727.9301757812501	-257.6278076171876	1520.826049804688	-548.0722045898439	-243.5977630615235	1473.413696289063	-550.9481201171876	-285.4572143554688	1469.259643554688	-508.3966064453126	-308.0159301757813	1407.370239257813	-481.6985778808595	-391.5676574707032	1419.77880859375	-510.0678710937501	-370.3498229980469	1183.636352539063	-671.7554931640626	-322.4172973632813	1139.409301757813	-625.8605957031251	-316.6054992675782	1168.549560546875	-722.5510253906251	-260.1042785644532	1144.0634765625	-1032.911743164063	-275.4320983886719	1142.454956054688	-769.1321411132815	-449.0867919921876	1235.5986328125	-908.483825683594	-462.785369873047	1209.227294921875	-938.2965087890627	-465.4366149902345	1204.360595703125	-883.696228027344	-339.8892517089844	917.8901367187502	-1141.290771484375	-298.4738464355469	847.2568359375002	-1162.094970703125	-250.328353881836	855.9193115234377	-1156.66845703125	-318.0208435058594	789.1135253906252	-1158.33935546875	-272.1319274902344	647.5116577148439	-1170.90185546875	-240.0174560546876	602.3006591796876	-1049.665283203125	-248.4647827148438	413.6140136718751	-1151.7978515625	-297.7752685546876	386.0527648925782	-1221.083618164063	-259.8378601074219	374.8242492675782	-1195.695678710938	-269.8862304687501	291.0364379882813	-1178.48291015625	-355.7270202636719	190.2917633056641	-1221.453979492188	-407.1403808593751	168.1721801757813	-1162.180053710938	-230.3901519775391	56.25673675537111	-1184.703491210938	-233.8390045166016	57.96279907226564	-1228.074096679688	-305.1225891113282	180.5984649658203	-1150.196166992188	-338.5143432617188	801.8643798828127	-660.6423339843751	-291.2836914062501	754.8149414062501	-645.4088134765626	-258.1405944824219	760.3823242187501	-648.6909790039064	-306.1342773437501	673.4243164062501	-651.5178222656251	-299.1353759765626	607.3444824218751	-644.3222656250001	-244.7324523925782	581.8048095703126	-762.6162719726564	-253.3419799804688	468.9307861328126	-638.8067626953126	-326.2861022949219	396.6693725585939	-610.7576293945314	-280.7710876464844	387.7497558593751	-621.2935180664064	-272.8240356445313	339.9571533203126	-656.0144653320314	-363.8988952636719	170.9034118652344	-617.9542236328126	-314.0811462402344	164.3942413330078	-695.9735717773439	-413.9371337890626	147.1699371337891	-691.0505981445314	-224.4342041015626	52.9874954223633	-620.6493530273439	-236.6825561523438	54.17378234863283	-584.8735351562501	-276.0415954589844	45.0002555847168	-547.7760620117189	
